<svg version="1.2" xmlns="http://www.w3.org/2000/svg" viewBox="0 0 118 118" width="118" height="118"><defs><clipPath clipPathUnits="userSpaceOnUse" id="cp1"><path d="m-1465-1995h1920v5365h-1920z"/></clipPath></defs><style>.a{fill:#ff5050}.b{fill:#fff}</style><g clip-path="url(#cp1)"><path class="a" d="m1 45c0-24.3 19.7-44 44-44h29c24.3 0 44 19.7 44 44v29c0 24.3-19.7 44-44 44h-29c-24.3 0-44-19.7-44-44z"/><path class="b" d="m79.8 34.8q2 0 3.5 1.3 1.5 1.2 1.5 3.2 0 1.7-1.3 4.1-9.6 17.3-13.4 20.7-2.9 2.5-6.4 2.5-3.6 0-6.2-2.6-2.6-2.5-2.6-6 0-3.5 2.6-5.8l18.5-15.9q1.7-1.5 3.8-1.5zm-26.4 28.4q1.2 2.1 3.1 3.6 2 1.5 4.4 2.1v1.9q0.1 5.9-3.7 9.5-3.9 3.7-10.1 3.7-3.6 0-6.4-1.3-2.7-1.2-4.4-3.5-1.6-2.2-2.5-5-0.8-2.8-0.8-6 0.2 0.1 1.2 0.8 1 0.7 1.8 1.2 0.8 0.6 1.7 1 0.9 0.5 1.3 0.5 1.2 0 1.6-1 0.7-1.8 1.7-3.1 0.9-1.3 2-2.1 1.1-0.8 2.5-1.3 1.5-0.5 3-0.7 1.5-0.2 3.6-0.3z"/></g></svg>