<svg version="1.2" xmlns="http://www.w3.org/2000/svg" viewBox="0 0 117 118" width="117" height="118"><defs><clipPath clipPathUnits="userSpaceOnUse" id="cp1"><path d="m-354-4383h1920v5365h-1920z"/></clipPath></defs><style>.a{fill:#ff5050}.b{fill:#fff}.c{fill:#f8f8f8}</style><g clip-path="url(#cp1)"><path class="a" d="m0 31c0-16.6 13.4-30 30-30h57c16.6 0 30 13.4 30 30v87h-117z"/><path class="b" d="m24 116c0-3.9 3.1-7 7-7h54c3.9 0 7 3.1 7 7v2h-68z"/><path class="c" d="m73.1 67.7c-0.1-0.4-0.4-0.8-0.8-1l-6.2-3.7q-0.4-0.2-0.9-0.2c-0.5 0-1 0.2-1.3 0.5l-1.9 1.9c0 0-0.3 0.1-0.4 0.1 0 0-2.1-0.1-6-4-3.9-3.9-4-6-4-6 0-0.1 0.1-0.3 0.2-0.4l1.5-1.6c0.6-0.5 0.7-1.5 0.4-2.2l-3.4-6.4c-0.3-0.6-0.8-0.9-1.3-0.9-0.4 0-0.8 0.2-1.1 0.5l-4.2 4.2c-0.4 0.4-0.8 1.1-0.9 1.7 0 0.3-0.7 6.8 8.2 15.7 7.6 7.6 13.5 8.2 15.1 8.2q0.3 0 0.6 0c0.6-0.1 1.3-0.5 1.7-0.9l4.3-4.2c0.3-0.4 0.5-0.8 0.4-1.3z"/></g></svg>