<svg version="1.2" xmlns="http://www.w3.org/2000/svg" viewBox="0 0 117 118" width="117" height="118"><defs><clipPath clipPathUnits="userSpaceOnUse" id="cp1"><path d="m-1449-4383h1920v5365h-1920z"/></clipPath></defs><style>.a{fill:#ff5050}.b{fill:#fff}.c{fill:#f8f8f8}</style><g clip-path="url(#cp1)"><path class="a" d="m0 31c0-16.6 13.4-30 30-30h57c16.6 0 30 13.4 30 30v87h-117z"/><path class="b" d="m24 116c0-3.9 3.1-7 7-7h54c3.9 0 7 3.1 7 7v2h-68z"/><path fill-rule="evenodd" class="c" d="m73 49.9v18.7c0 1.1-0.8 1.9-1.9 1.9h-26.2c-1.1 0-1.9-0.8-1.9-1.9v-18.7c0-1.1 0.8-1.9 1.9-1.9h26.2c1.1 0 1.9 0.8 1.9 1.9zm-10.1 11.9l1.3-1.3 6.9 6.9v-16.4l-11.9 11.9c-0.8 0.7-1.9 0.7-2.7 0l-11.6-11.6v16.2l6.7-7 1.4 1.3-6.6 6.8h23.3zm-5.1-0.2l11.8-11.7h-23.5z"/></g></svg>