<svg version="1.2" xmlns="http://www.w3.org/2000/svg" viewBox="0 0 65 65" width="65" height="65"><defs><clipPath clipPathUnits="userSpaceOnUse" id="cp1"><path d="m-927-827h1920v5365h-1920z"/></clipPath></defs><style>.a{fill:#ff5050}.b{fill:#fff}</style><g clip-path="url(#cp1)"><path class="a" d="m0 32.5c0-17.9 14.6-32.5 32.5-32.5 17.9 0 32.5 14.6 32.5 32.5 0 17.9-14.6 32.5-32.5 32.5-17.9 0-32.5-14.6-32.5-32.5z"/><path class="b" d="m26.3 36.3c0.2-0.2 0.5-0.3 0.8-0.3 0.3 0 0.6 0.1 0.8 0.3l6 6 5.9-6c0.5-0.4 1.2-0.4 1.6 0 0.5 0.5 0.5 1.2 0 1.6l-6.7 6.8c-0.2 0.2-0.5 0.3-0.8 0.3-0.3 0-0.6-0.1-0.8-0.3l-6.8-6.8c-0.2-0.2-0.3-0.5-0.3-0.8 0-0.3 0.1-0.6 0.3-0.8z"/><path class="b" d="m33.9 43.9c-0.6 0-1.1-0.5-1.1-1.2v-23.6c0-0.6 0.5-1.1 1.1-1.1 0.6 0 1.1 0.5 1.1 1.1v23.6c0 0.7-0.5 1.2-1.1 1.2z"/></g></svg>