<svg version="1.2" xmlns="http://www.w3.org/2000/svg" viewBox="0 0 117 118" width="117" height="118"><defs><clipPath clipPathUnits="userSpaceOnUse" id="cp1"><path d="m-902-4383h1920v5365h-1920z"/></clipPath></defs><style>.a{fill:#ff5050}.b{fill:#fff}.c{fill:#f8f8f8}</style><g clip-path="url(#cp1)"><path class="a" d="m0 31c0-16.6 13.4-30 30-30h57c16.6 0 30 13.4 30 30v87h-117z"/><path class="b" d="m24 116c0-3.9 3.1-7 7-7h54c3.9 0 7 3.1 7 7v2h-68z"/><path fill-rule="evenodd" class="c" d="m58 60.2c-3.1 0-5.6-2.5-5.6-5.6 0-3.1 2.5-5.6 5.6-5.6 3.1 0 5.6 2.5 5.6 5.6 0 3.1-2.5 5.6-5.6 5.6zm0-9c-1.9 0-3.4 1.5-3.4 3.4 0 1.9 1.5 3.4 3.4 3.4 1.9 0 3.4-1.5 3.4-3.4 0-1.9-1.5-3.4-3.4-3.4z"/><path fill-rule="evenodd" class="c" d="m58 78.2l-11.5-13.6q-0.2-0.3-0.5-0.6c-1.9-2.6-3-5.8-3-9 0-8.3 6.7-15 15-15 8.3 0 15 6.7 15 15 0 3.2-1.1 6.4-3 9 0 0-0.4 0.5-0.5 0.6zm-9.8-15.8c0 0 0.3 0.4 0.4 0.5l9.4 11.1 9.4-11.1c0.1-0.1 0.4-0.5 0.4-0.5 1.6-2.1 2.5-4.7 2.5-7.4 0-6.8-5.5-12.2-12.3-12.2-6.8 0-12.3 5.4-12.3 12.2 0 2.7 0.9 5.3 2.5 7.4z"/></g></svg>